<svg xmlns="http://www.w3.org/2000/svg" xmlns:xlink="http://www.w3.org/1999/xlink" viewBox="0 0 120 120"><defs><style>.cls-1{fill:url(#linear-gradient);}.cls-2{fill:#fff;}</style><linearGradient id="linear-gradient" y1="60" x2="120" y2="60" gradientUnits="userSpaceOnUse"><stop offset="0" stop-color="#2d4785"/><stop offset="0.11" stop-color="#374583"/><stop offset="0.29" stop-color="#53417d"/><stop offset="0.53" stop-color="#7f3973"/><stop offset="0.81" stop-color="#bd2f65"/><stop offset="1" stop-color="#e9275b"/></linearGradient></defs><g id="Layer_2" data-name="Layer 2"><g id="Layer_1-2" data-name="Layer 1"><rect class="cls-1" width="120" height="120" rx="17.12"/><path class="cls-2" d="M20.88,62.28l6.29,6.29L53,94.37a3.25,3.25,0,0,0,4.58,0l4-4a3.24,3.24,0,0,0,0-4.57L41.82,66.06h59.75a3.24,3.24,0,0,0,3.24-3.24V57.16a3.24,3.24,0,0,0-3.24-3.24H41.82L61.53,34.21a3.24,3.24,0,0,0,0-4.57l-4-4a3.25,3.25,0,0,0-4.58,0L27.17,51.41,20.88,57.7A3.25,3.25,0,0,0,20.88,62.28Z"/></g></g></svg>