<svg xmlns="http://www.w3.org/2000/svg" xmlns:xlink="http://www.w3.org/1999/xlink" viewBox="0 0 120 120"><defs><style>.cls-1{fill:url(#linear-gradient);}.cls-2{fill:#fff;}</style><linearGradient id="linear-gradient" y1="60" x2="120" y2="60" gradientUnits="userSpaceOnUse"><stop offset="0" stop-color="#2d4785"/><stop offset="0.11" stop-color="#374583"/><stop offset="0.29" stop-color="#53417d"/><stop offset="0.53" stop-color="#7f3973"/><stop offset="0.81" stop-color="#bd2f65"/><stop offset="1" stop-color="#e9275b"/></linearGradient></defs><g id="Layer_2" data-name="Layer 2"><g id="Layer_1-2" data-name="Layer 1"><rect class="cls-1" width="120" height="120" rx="17.12"/><path class="cls-2" d="M57.39,20.63l-7.21,7.24L20.63,57.56a3.74,3.74,0,0,0,0,5.27l4.58,4.6a3.68,3.68,0,0,0,5.24,0V96.74a3.72,3.72,0,0,0,3.71,3.72H85.84a3.72,3.72,0,0,0,3.71-3.72V67.41a3.7,3.7,0,0,0,5.24,0l4.58-4.61a3.72,3.72,0,0,0,0-5.26L69.84,27.87l-7.21-7.24A3.7,3.7,0,0,0,57.39,20.63Z"/></g></g></svg>