<svg xmlns="http://www.w3.org/2000/svg" xmlns:xlink="http://www.w3.org/1999/xlink" viewBox="0 0 229.54 229.54"><defs><style>.cls-1{fill:url(#linear-gradient);}.cls-2{fill:#fff;}</style><linearGradient id="linear-gradient" y1="114.77" x2="229.54" y2="114.77" gradientUnits="userSpaceOnUse"><stop offset="0" stop-color="#2d4785"/><stop offset="0.11" stop-color="#374583"/><stop offset="0.29" stop-color="#53417d"/><stop offset="0.53" stop-color="#7f3973"/><stop offset="0.81" stop-color="#bd2f65"/><stop offset="1" stop-color="#e9275b"/></linearGradient></defs><g id="Layer_2" data-name="Layer 2"><g id="Home"><path class="cls-1" d="M0,132.2Q48.08,57.08,100.35,0L229.54,101.55q-25.83,31.86-48.07,62.5L135.2,229.54Z"/><path class="cls-2" d="M139.79,128c3.13,2.58,5.64,4.6,7.54,6.09s4.38,3.35,7.43,5.6A62.37,62.37,0,0,1,128,159.83q.47,7.28,1.2,13.78t1.1,12q-6.33-5.13-9.91-7.92-4.73-3.71-9.58-7.48l-1.25-12.64q-3.69,0-6.21-.24a45.26,45.26,0,0,1-5.82-.92,42,42,0,0,1-6.58-2,50.19,50.19,0,0,1-6.59-3.18,57,57,0,0,1-6.76-4.59,53.42,53.42,0,0,1-13.8-15.52,28.8,28.8,0,0,1-4-17.34A30.33,30.33,0,0,1,75,90.35a31.79,31.79,0,0,1,12.66-3.59q7.47-.69,20.3,1.48a56.64,56.64,0,0,1,2.17-12,26,26,0,0,1,4.13-8,22.45,22.45,0,0,1,8-6.38,23.91,23.91,0,0,1,10.58-2.37,27.24,27.24,0,0,1,11,2.29,47.85,47.85,0,0,1,10.25,6.19,90.92,90.92,0,0,1,15.63,16.22L159.43,97.93a48,48,0,0,0-4.83-8.13,29.33,29.33,0,0,0-5-5,20.84,20.84,0,0,0-7.43-3.8,12.27,12.27,0,0,0-7.34.16A11.73,11.73,0,0,0,129.31,85a16,16,0,0,0-2,3.38,24.07,24.07,0,0,0-1.49,5,66.36,66.36,0,0,0-1.08,10.52q-.24,7.56.25,14.8.06,1.81,1.18,12,.51,4.61.81,9a36.13,36.13,0,0,0,4-2.56,41,41,0,0,0,3.82-3.53Q137.1,131.17,139.79,128Zm-30.73,13.26-1.25-14.79c-.36-4.2-.62-7.79-.78-10.75s-.28-6.51-.38-10.64a90.89,90.89,0,0,0-9.52-.6,22.14,22.14,0,0,0-6.16.89,15.78,15.78,0,0,0-4.79,2.25,17.12,17.12,0,0,0-3.35,3.23A14.37,14.37,0,0,0,79.75,119a16.07,16.07,0,0,0,2.17,9A26.58,26.58,0,0,0,89,136a29,29,0,0,0,5.32,3.31,24.61,24.61,0,0,0,5.32,1.87,19.66,19.66,0,0,0,4.58.51A48.07,48.07,0,0,0,109.06,141.23Z"/></g></g></svg>