<svg xmlns="http://www.w3.org/2000/svg" xmlns:xlink="http://www.w3.org/1999/xlink" viewBox="0 0 222.55 222.55"><defs><style>.cls-1{fill:url(#linear-gradient);}.cls-2{fill:#fff;}</style><linearGradient id="linear-gradient" y1="111.27" x2="222.55" y2="111.27" gradientUnits="userSpaceOnUse"><stop offset="0" stop-color="#2d4785"/><stop offset="0.11" stop-color="#374583"/><stop offset="0.29" stop-color="#53417d"/><stop offset="0.53" stop-color="#7f3973"/><stop offset="0.81" stop-color="#bd2f65"/><stop offset="1" stop-color="#e9275b"/></linearGradient></defs><g id="Layer_2" data-name="Layer 2"><g id="Home"><path class="cls-1" d="M0,128.17Q46.61,55.35,97.29,0L222.55,98.46q-25.05,30.89-46.61,60.59l-44.86,63.5Z"/><path class="cls-2" d="M162.57,108.46l-7.78-7.78L122.9,68.78a4,4,0,0,0-5.66,0l-4.95,5a4,4,0,0,0,0,5.66l24.4,24.4H62.81a4,4,0,0,0-4,4v7a4,4,0,0,0,4,4h73.88l-24.38,24.37a4,4,0,0,0,0,5.66l5,5a4,4,0,0,0,5.66,0l31.87-31.88,7.78-7.77A4,4,0,0,0,162.57,108.46Z"/></g></g></svg>